<?xml version="1.0" encoding="utf-8"?>
<!-- Generator: Adobe Illustrator 22.1.0, SVG Export Plug-In . SVG Version: 6.00 Build 0)  -->
<svg version="1.1" id="Camada_1" xmlns="http://www.w3.org/2000/svg" xmlns:xlink="http://www.w3.org/1999/xlink" x="0px" y="0px"
	 viewBox="0 0 100 90" style="enable-background:new 0 0 100 90;" xml:space="preserve">
<style type="text/css">
	.st0{fill:none;stroke:#FFFFFF;stroke-width:3;stroke-linecap:round;stroke-linejoin:round;stroke-miterlimit:10;}
	.st1{fill:#FFFFFF;}
</style>
<g>
	<path class="st0" d="M38.3,58.8H61c3,0,5.4-2.4,5.4-5.4l0,0c0-3-2.4-5.4-5.4-5.4H24.2c-2.1,0-4.1,0.8-5.6,2.3l-8.8,8.4"/>
	<path class="st0" d="M28,76.1l39.5-5c1.3-0.2,2.6-0.7,3.7-1.4l24.1-16.4c2.5-1.6,3.3-4.9,1.7-7.4l0,0c-1.6-2.5-4.9-3.3-7.4-1.7
		L68.5,57.5c-1.4,0.8-2.9,1.3-4.5,1.3H38.3"/>
	<path class="st0" d="M2.1,55h3.2c1.4,0,2.7,0.7,3.4,2L21,77.2c1.6,2.7-0.3,6.1-3.4,6.1l0,0"/>
	<circle class="st0" cx="49.1" cy="25.5" r="9.4"/>
	<path class="st1" d="M67.8,16.1c0,5.2-4.2,9.4-9.4,9.4l-2.9-6.8l-6.4-2.6c0-5.2,4.2-9.4,9.4-9.4S67.8,11,67.8,16.1z"/>
</g>
</svg>
