<?xml version="1.0" encoding="utf-8"?>
<!-- Generator: Adobe Illustrator 22.1.0, SVG Export Plug-In . SVG Version: 6.00 Build 0)  -->
<svg version="1.1" id="Camada_1" xmlns="http://www.w3.org/2000/svg" xmlns:xlink="http://www.w3.org/1999/xlink" x="0px" y="0px"
	 viewBox="0 0 68 100" style="enable-background:new 0 0 68 100;" xml:space="preserve">
<style type="text/css">
	.st0{fill:#FFFFFF;}
	.st1{fill:none;stroke:#FFFFFF;stroke-width:2;stroke-miterlimit:10;}
	.st2{fill:none;stroke:#FFFFFF;stroke-width:2;stroke-linecap:round;stroke-miterlimit:10;}
</style>
<path class="st0" d="M42.8,41.7c0.4,0,0.7-0.2,0.9-0.6c0.2-0.4,0.3-0.9,0.3-1.7c0-0.3,0-0.7-0.1-1.2c-0.1-0.5-0.1-0.9-0.2-1.3
	c0.3,0.1,0.5,0.1,0.7,0.1c0.2,0,0.4,0,0.6-0.1v0.3c0,0.4,0.2,0.8,0.3,1c0.2,0.2,0.3,0.3,0.7,0.3c0.2,0,0.5-0.1,0.7-0.2
	c0.2-0.2,0.4-0.4,0.7-0.7c0.2-0.3,0.4-0.7,0.7-1c0.2,0.1,0.5,0.1,0.8,0.1s0.7-0.1,1-0.2c0.2-0.1,0.2-0.2,0.3-0.2
	c0.1-0.1,0.1-0.2,0.1-0.5c0-0.1,0-0.2-0.1-0.2c-0.1-0.1-0.2-0.1-0.2-0.1h-0.1l-0.2,0.1c-0.4,0.1-0.7,0.2-1,0.2
	c0.2-0.4,0.2-0.7,0.2-1s-0.1-0.4-0.2-0.6C48.5,34,48.4,34,48.1,34c-0.2,0-0.4,0.1-0.6,0.2c-0.2,0.2-0.3,0.3-0.4,0.5
	C47,34.9,47,35.1,47,35.3c0,0.2,0.1,0.5,0.2,0.7c-0.2,0.3-0.5,0.8-0.9,1.4c-0.1-1.2-0.2-2.2-0.2-3c0-0.2-0.1-0.3-0.2-0.4
	c-0.1-0.1-0.2-0.1-0.4-0.1c-0.2,0-0.4,0.1-0.5,0.2c-0.1,0.1-0.2,0.2-0.2,0.4v0.3v1c-0.2,0-0.6,0.1-0.8,0.1h-0.2h-0.5
	c-0.1,0-0.2,0.1-0.2,0.2c-0.1,0.1-0.2,0.2-0.2,0.3c-0.1,0.2-0.1,0.2-0.1,0.3c0.1,0.6,0.2,1.1,0.2,1.5c0.1,0.5,0.1,1,0.1,1.5
	c0,0.7-0.1,1-0.3,1c-0.1,0-0.2-0.3-0.2-1.1c-0.1-0.7-0.1-1.4-0.1-2.1c0-0.5,0-1.1,0.1-1.7c1.9-1.8,2.8-3.5,2.8-5
	c0-0.5-0.1-0.8-0.2-1.2c-0.2-0.2-0.4-0.4-0.7-0.4c-0.6,0-1.1,0.4-1.6,1.2c-0.5,0.8-0.8,1.9-1.2,3.2c-0.2,1.3-0.4,2.6-0.4,3.9
	c0,1.4,0.1,2.4,0.3,3.1C42,41.4,42.3,41.7,42.8,41.7L42.8,41.7z M43.4,32.5c0.2-0.7,0.3-1.2,0.5-1.6c0.2-0.4,0.3-0.6,0.4-0.6
	c0.2,0,0.2,0.2,0.2,0.6c0,0.6-0.2,1.2-0.4,1.8s-0.7,1.2-1.2,1.9C43.1,33.9,43.2,33.1,43.4,32.5z"/>
<path class="st0" d="M28.1,33.7L28.1,33.7l-0.4,0.1c-0.5,0.1-0.8,0.2-1.1,0.2c0.2-0.4,0.2-0.7,0.2-1.1c0-0.2-0.1-0.5-0.2-0.7
	C26.5,32,26.3,32,26.2,32c-0.2,0-0.4,0.1-0.7,0.2c-0.2,0.2-0.3,0.3-0.4,0.6c-0.1,0.2-0.2,0.5-0.2,0.7c0,0.3,0.1,0.6,0.2,0.7
	c-0.2,0.3-0.5,0.9-1,1.5c-0.1-1.3-0.2-2.4-0.2-3.2c0-0.2-0.1-0.3-0.2-0.4C23.7,32,23.5,32,23.4,32c-0.2,0-0.4,0.1-0.6,0.2
	c-0.1,0.1-0.2,0.2-0.2,0.5v0.4c0,0.6,0,1.2,0.1,1.9c-0.2,0.3-0.6,0.6-0.7,0.7c-0.2,0.2-0.4,0.2-0.7,0.2c-0.1,0-0.2,0-0.4-0.1
	c0.2-0.3,0.4-0.6,0.5-1c0.1-0.3,0.2-0.7,0.2-1.1c0-0.5-0.2-0.9-0.4-1.2c-0.2-0.3-0.6-0.5-1-0.5c-0.2,0-0.5,0.1-0.7,0.2
	c-0.2,0.2-0.4,0.3-0.7,0.7v-0.4c0-0.2-0.1-0.3-0.1-0.3c-0.1-0.1-0.2-0.1-0.3-0.1c-0.2,0-0.5,0.1-0.7,0.2c-0.2,0.2-0.2,0.3-0.2,0.5
	v2.1c-0.7,1.2-1.2,2.1-1.5,3.1c-0.3,0.9-0.5,1.7-0.5,2.5c0,0.5,0.1,0.9,0.2,1.2c0.2,0.2,0.5,0.4,0.8,0.4c0.7,0,1.2-0.5,1.5-1.4
	c0.3-0.9,0.5-2.1,0.7-3.5c0.4,0,0.8-0.2,1.2-0.4c0.2,0.2,0.6,0.4,0.9,0.4c0.4,0,0.8-0.2,1.2-0.3c0.2-0.2,0.4-0.3,0.7-0.6
	c0.1,0.2,0.2,0.4,0.2,0.6c0.2,0.2,0.4,0.3,0.7,0.3c0.2,0,0.5-0.1,0.7-0.2c0.2-0.2,0.4-0.4,0.7-0.8c0.2-0.3,0.5-0.7,0.7-1.1
	c0.2,0.1,0.6,0.2,0.9,0.2s0.7-0.1,1.1-0.2c0.2-0.1,0.3-0.2,0.4-0.2c0.2-0.3,0.2-0.5,0.2-0.7c0-0.2,0-0.2-0.1-0.3
	C28.3,33.7,28.2,33.7,28.1,33.7z M17.3,39.6c-0.2,0.8-0.3,1.2-0.5,1.2c-0.1,0-0.2-0.1-0.2-0.2c-0.1-0.1-0.1-0.3-0.1-0.5
	c0-0.4,0.1-1,0.2-1.7c0.2-0.7,0.4-1.3,0.7-2.1C17.5,37.7,17.4,38.7,17.3,39.6z M20.1,34.7c-0.2,0.3-0.3,0.6-0.5,0.8
	c-0.2,0.2-0.4,0.3-0.7,0.4v-0.7v-1.4c0.3-0.6,0.7-0.8,0.9-0.8c0.2,0,0.2,0.1,0.3,0.2c0.1,0.1,0.2,0.2,0.2,0.5
	C20.3,34,20.3,34.4,20.1,34.7z"/>
<path class="st0" d="M23.9,84.6c-0.1-0.1-0.2-0.2-0.2-0.2c-0.2,0-0.2,0.1-0.3,0.2c-0.4,0.5-0.7,0.8-0.9,1.1C22.2,85.9,22,86,21.8,86
	c-0.2,0-0.2-0.1-0.3-0.2c-0.1-0.2-0.1-0.3-0.1-0.6c0-0.3,0.1-1,0.3-2c0.2-0.8,0.2-1.3,0.2-1.5c0-0.3-0.2-0.4-0.7-0.4
	c-0.3,0-0.5,0.1-0.7,0.2c-0.2,0.1-0.2,0.3-0.3,0.6c-0.2,0.5-0.2,1.1-0.4,1.7c-0.1,0.6-0.2,1.2-0.2,1.5c0,0.7,0.2,1.2,0.4,1.6
	c0.2,0.4,0.7,0.6,1.2,0.6c0.7,0,1.6-0.5,2.4-1.6c0.2-0.2,0.2-0.4,0.2-0.8C24,84.9,24,84.7,23.9,84.6z"/>
<path class="st0" d="M21.4,80.4c0.4,0,0.7-0.1,0.9-0.3c0.2-0.2,0.3-0.5,0.3-0.8c0-0.2-0.1-0.5-0.3-0.7c-0.2-0.2-0.5-0.2-0.8-0.2
	s-0.7,0.1-0.9,0.3s-0.3,0.5-0.3,0.7c0,0.3,0.1,0.6,0.2,0.7C20.8,80.3,21.1,80.4,21.4,80.4z"/>
<path class="st0" d="M25.2,59.5c-0.2,0-0.2,0.1-0.3,0.2c-0.4,0.5-0.7,0.8-1,1.1c-0.2,0.2-0.4,0.3-0.7,0.3c-0.2,0-0.4-0.2-0.4-0.5
	c0-0.2,0.1-0.7,0.2-1.5c0.2-0.9,0.2-1.5,0.2-1.8c0-0.6-0.3-0.8-0.8-0.8c-0.3,0-0.6,0.1-0.9,0.3c-0.3,0.2-0.7,0.6-1.1,1
	c-0.4,0.4-0.7,1.1-1,1.8c0.1-0.4,0.1-0.7,0.2-1c0.1-0.2,0.1-0.6,0.2-0.9c0.2-0.5,0.2-0.8,0.2-0.9s0-0.2-0.1-0.2
	c-0.1-0.1-0.2-0.1-0.3-0.1c-0.3,0-0.6,0.1-0.7,0.2c-0.2,0.1-0.3,0.3-0.4,0.6c-0.3,1-0.5,2.1-0.5,3.2c0,0.7,0.1,1.3,0.2,1.7
	c0.2,0.3,0.3,0.5,0.7,0.5c0.2,0,0.5-0.1,0.6-0.2c0.2-0.2,0.2-0.4,0.3-0.8c0.2-0.5,0.3-1.1,0.5-1.5c0.2-0.5,0.4-0.8,0.7-1.2
	c0.2-0.3,0.3-0.4,0.5-0.4c0.1,0,0.2,0.1,0.2,0.2c0,0.2-0.1,0.6-0.2,1.2c-0.2,0.7-0.2,1.1-0.2,1.3c0,0.5,0.1,0.8,0.3,1.2
	c0.2,0.2,0.6,0.4,1,0.4c0.6,0,1.1-0.2,1.5-0.4c0.4-0.3,0.8-0.7,1.2-1.2c0.2-0.2,0.2-0.4,0.2-0.8c0-0.2,0-0.3-0.1-0.4
	C25.4,59.6,25.3,59.5,25.2,59.5L25.2,59.5z"/>
<path class="st0" d="M50.9,59.4c-0.2,0-0.2,0.1-0.3,0.2c-0.4,0.5-0.7,0.8-1,1.1c-0.2,0.2-0.4,0.2-0.6,0.2c-0.2,0-0.4-0.2-0.4-0.5
	c0-0.2,0.1-0.7,0.2-1.5c0.2-0.9,0.2-1.5,0.2-1.8c0-0.6-0.2-0.8-0.8-0.8c-0.5,0-1,0.2-1.5,0.7c-0.5,0.5-1,1.2-1.4,2.3
	c0-0.2,0.1-0.4,0.2-0.7c0.2-0.7,0.2-1.2,0.2-1.5c0-0.2-0.1-0.5-0.2-0.7c-0.2-0.2-0.3-0.2-0.7-0.2s-0.7,0.1-1,0.3
	c-0.3,0.2-0.7,0.6-1,1.1s-0.6,1.1-0.8,1.7c0-0.4,0.1-0.7,0.2-1c0.1-0.2,0.1-0.6,0.2-0.9c0.2-0.5,0.2-0.8,0.2-0.9
	c0-0.1,0-0.2-0.1-0.2c-0.1-0.1-0.2-0.1-0.3-0.1c-0.3,0-0.6,0.1-0.7,0.2c-0.2,0.1-0.3,0.3-0.4,0.6c-0.3,1-0.5,2.1-0.5,3.2
	c0,0.7,0.1,1.3,0.2,1.7c0.2,0.3,0.3,0.5,0.7,0.5c0.2,0,0.5-0.1,0.6-0.2c0.1-0.2,0.2-0.4,0.3-0.8c0.1-0.5,0.2-0.9,0.4-1.4
	c0.2-0.5,0.4-0.9,0.6-1.2c0.2-0.3,0.3-0.5,0.5-0.5c0.1,0,0.2,0.1,0.2,0.2c0,0.2,0,0.6-0.1,1.1c-0.1,0.7-0.2,1.1-0.2,1.4
	c0,0.4,0.1,0.7,0.2,1c0.2,0.2,0.3,0.4,0.7,0.4c0.2,0,0.5-0.1,0.6-0.2c0.1-0.2,0.2-0.4,0.3-0.8c0.1-0.6,0.3-1.1,0.5-1.5
	c0.2-0.5,0.4-0.8,0.7-1.2c0.2-0.3,0.3-0.4,0.5-0.4c0.1,0,0.2,0.1,0.2,0.2c0,0.2-0.1,0.6-0.2,1.2c-0.1,0.6-0.2,1.1-0.2,1.3
	c0,0.5,0.1,0.8,0.3,1.1c0.2,0.2,0.6,0.4,1,0.4c0.6,0,1.1-0.2,1.5-0.4c0.4-0.3,0.8-0.7,1.2-1.2c0.2-0.2,0.2-0.5,0.2-0.8
	c0-0.2,0-0.3-0.1-0.4C51.1,59.4,51,59.4,50.9,59.4z"/>
<g>
	<line class="st1" x1="34.9" y1="14.3" x2="34.9" y2="14.3"/>
	<line class="st1" x1="50.3" y1="16.7" x2="50.3" y2="16.7"/>
	<path class="st1" d="M34.9,14.3l-2.4,5.5c-0.3,0.7,0.2,1.6,1.1,1.5c1.8-0.2,4.8-0.4,8.1,0.2c3.4,0.6,6.2,1.7,7.8,2.4
		c0.7,0.3,1.6-0.2,1.5-1.1l-0.7-6.1"/>
	<path class="st1" d="M50.3,16.7l8.1-2.2c0.2-0.1,0.2-0.4,0.1-0.5L44.4,4.9h-0.2L28,9.3c-0.2,0.1-0.2,0.3-0.1,0.5l7,4.5"/>
	<polyline class="st1" points="34.9,14.3 42,18.9 42.2,18.9 50.3,16.7 	"/>
</g>
<g>
	<path class="st1" d="M33.6,22.4h21.8c1.4,0,2.5,1.1,2.5,2.5v21.7"/>
	<line class="st1" x1="33.6" y1="46.7" x2="57.9" y2="46.7"/>
	<line class="st1" x1="57.9" y1="46.6" x2="33.6" y2="46.6"/>
	<polyline class="st1" points="57.9,46.7 57.9,70.7 33.6,70.7 	"/>
	<line class="st1" x1="57.9" y1="46.6" x2="57.9" y2="46.7"/>
	<path class="st1" d="M33.6,95L33.6,95l21.8,0.1c1.4,0,2.5-1.1,2.5-2.5V70.8H33.6"/>
	<path class="st1" d="M33.6,22.4L33.6,22.4l-21.7-0.1c-1.4,0-2.5,1.1-2.5,2.5v21.8"/>
	<line class="st1" x1="33.6" y1="22.4" x2="33.6" y2="46.6"/>
	<polyline class="st1" points="9.5,46.6 9.4,46.6 9.4,70.8 9.5,70.8 	"/>
	<line class="st1" x1="33.6" y1="70.7" x2="33.6" y2="70.8"/>
	<line class="st1" x1="33.6" y1="70.7" x2="33.6" y2="46.7"/>
	<line class="st1" x1="33.6" y1="46.7" x2="33.6" y2="46.6"/>
	<line class="st1" x1="9.5" y1="46.6" x2="33.6" y2="46.6"/>
	<path class="st1" d="M9.5,70.8v21.8c0,1.3,1.1,2.4,2.4,2.4h21.8"/>
	<line class="st1" x1="33.6" y1="70.8" x2="33.6" y2="95"/>
	<line class="st1" x1="9.5" y1="70.8" x2="33.6" y2="70.8"/>
</g>
<line class="st2" x1="40.7" y1="80.6" x2="50.7" y2="80.6"/>
<line class="st2" x1="40.7" y1="85.3" x2="50.7" y2="85.3"/>
</svg>
