<?xml version="1.0" encoding="utf-8"?>
<!-- Generator: Adobe Illustrator 22.1.0, SVG Export Plug-In . SVG Version: 6.00 Build 0)  -->
<svg version="1.1" id="Camada_1" xmlns="http://www.w3.org/2000/svg" xmlns:xlink="http://www.w3.org/1999/xlink" x="0px" y="0px"
	 viewBox="0 0 100 100" style="enable-background:new 0 0 100 100;" xml:space="preserve">
<style type="text/css">
	.st0{fill:none;stroke:#FFFFFF;stroke-width:2.5;stroke-miterlimit:10;}
	.st1{fill:none;stroke:#FFFFFF;stroke-width:2.5;stroke-linecap:round;stroke-miterlimit:10;}
</style>
<path class="st0" d="M61.6,94.2c-0.9,0-1.6-0.5-1.9-1.4l-0.6-2.7l-2.3-0.9c-0.4-0.1-0.6-0.4-1-0.8l-1-1.5l-1.5,0.1h-0.1
	c-0.8,0-1.3-0.4-1.7-1l-1.2-2.3h-1.8c-0.9,0-1.6-0.5-1.8-1.4l-0.4-1.8L45,80.9h-0.3c-1,0-1.7-0.6-1.8-1.6l-0.4-3.1l-1.9,0.4h-0.4
	c-0.9,0-1.6-0.5-1.8-1.4l-0.1-0.5l-1.3,0.1h-0.2c-0.4,0-0.9-0.1-1.2-0.4c-0.4-0.3-0.8-0.4-1.2-0.4c-0.3,0-0.4,0-0.6,0.1
	c-2,0.9-4.2,1.2-6.5,1.2c-4.2,0-8.3-1.5-11.5-4.3c-3.1-2.7-5.2-6.7-5.7-11.1c-0.4-4.4,0.5-8.7,3-12.2c1.7-2.4,3.8-4.2,6.4-5.4
	c2.4-1.2,5.1-1.8,7.8-1.8c4,0,7.8,1.3,10.9,3.8c5,4,7.3,10.2,6.4,16.5c-0.2,0.9,0.2,1.8,0.9,2.4l24.6,19.6l0.5,10L62,94.2L61.6,94.2
	L61.6,94.2z M20.7,52.5c-1.7,2-1.3,5.2,0.8,6.9c0.9,0.6,1.9,1.1,3,1.1c1.5,0,2.9-0.6,3.9-1.9c0.9-1.1,1.2-2.3,1.1-3.6
	c-0.1-1.3-0.8-2.5-1.8-3.3c-0.9-0.6-1.9-1.1-3-1.1C23,50.5,21.6,51.3,20.7,52.5z"/>
<circle class="st1" cx="66.6" cy="23" r="17.4"/>
<path class="st1" d="M43.3,50.5c0.5-7.4,2.6-13.6,9.1-17.4"/>
<path class="st1" d="M80.8,33.2c8.3,5,9.4,13.9,9.4,24.3c0,14.2-6.7,26-19.8,27.8"/>
<circle class="st1" cx="22.4" cy="23.8" r="12.5"/>
<path class="st1" d="M13.4,47.3c-1-4.7-0.1-10.8,1.8-13.1"/>
<path class="st1" d="M34.5,27.1c4.2,0.8,8.8,4.1,12.2,10.9"/>
</svg>
