<?xml version="1.0" encoding="utf-8"?>
<!-- Generator: Adobe Illustrator 22.1.0, SVG Export Plug-In . SVG Version: 6.00 Build 0)  -->
<svg version="1.1" id="Camada_1" xmlns="http://www.w3.org/2000/svg" xmlns:xlink="http://www.w3.org/1999/xlink" x="0px" y="0px"
	 viewBox="0 0 69.4 100" style="enable-background:new 0 0 69.4 100;" xml:space="preserve">
<style type="text/css">
	.st0{fill:none;stroke:#FFFFFF;stroke-width:2.5;stroke-linecap:round;stroke-miterlimit:10;}
	.st1{fill:none;stroke:#FFFFFF;stroke-width:2.5;stroke-linecap:round;stroke-linejoin:round;stroke-miterlimit:10;}
</style>
<path class="st0" d="M54.8,7.3h4.8c4.2,0,7.6,3.4,7.6,7.6v75c0,4.2-3.4,7.6-7.6,7.6h-50c-4.2,0-7.6-3.4-7.6-7.6v-75
	c0-4.2,3.4-7.6,7.6-7.6h20.3"/>
<path class="st0" d="M54.8,7.3c0,3.6-2.9,6.6-6.6,6.6H21c-2,0-3.8-0.9-5-2.3"/>
<path class="st0" d="M29.8,7.3c0-2.6,2.1-4.8,4.8-4.8s4.8,2.1,4.8,4.8"/>
<line class="st0" x1="11" y1="24" x2="58.2" y2="24"/>
<line class="st0" x1="11" y1="30.7" x2="58.2" y2="30.7"/>
<line class="st0" x1="26.2" y1="37.3" x2="58.2" y2="37.3"/>
<line class="st0" x1="11" y1="37.3" x2="21.5" y2="37.3"/>
<line class="st0" x1="11" y1="44" x2="58.2" y2="44"/>
<line class="st0" x1="11" y1="56.8" x2="58.2" y2="56.8"/>
<line class="st0" x1="43.6" y1="50.7" x2="58.2" y2="50.7"/>
<line class="st0" x1="11" y1="50.7" x2="38.4" y2="50.7"/>
<path class="st1" d="M16.9,87h-3.2c-1,0-1.8-0.8-1.8-1.8V68.5c0-1,0.8-1.8,1.8-1.8h41.9c1,0,1.8,0.8,1.8,1.8v16.7
	c0,1-0.8,1.8-1.8,1.8H21.4l6-6.5h4.2l4.9-4.9h9.3l4.4-4.4"/>
</svg>
