<?xml version="1.0" encoding="utf-8"?>
<!-- Generator: Adobe Illustrator 22.1.0, SVG Export Plug-In . SVG Version: 6.00 Build 0)  -->
<svg version="1.1" id="Camada_1" xmlns="http://www.w3.org/2000/svg" xmlns:xlink="http://www.w3.org/1999/xlink" x="0px" y="0px"
	 viewBox="0 0 70.5 100" style="enable-background:new 0 0 70.5 100;" xml:space="preserve">
<style type="text/css">
	.st0{fill:none;stroke:#FFFFFF;stroke-width:2.5;stroke-linecap:round;stroke-linejoin:round;stroke-miterlimit:10;}
	.st1{fill:none;stroke:#FFFFFF;stroke-width:2.5;stroke-linecap:round;stroke-miterlimit:10;}
	.st2{fill:#FFFFFF;}
</style>
<path class="st0" d="M19.8,21.6h37.4c1.4,0,2.6-1.2,2.6-2.6v-4.9c0,0-0.1-7.6,5.7-9.4H19.7c-5,0-9,4.1-9,9v72.1c0,0,0.1,7.6-5.7,9.4
	h45.8c5,0,9-4.1,9-9V38.9"/>
<line class="st1" x1="19.8" y1="34.5" x2="50.7" y2="34.5"/>
<line class="st1" x1="19.8" y1="28" x2="50.7" y2="28"/>
<line class="st1" x1="19.8" y1="67" x2="50.7" y2="67"/>
<line class="st1" x1="19.8" y1="79.9" x2="50.7" y2="79.9"/>
<line class="st1" x1="19.8" y1="73.4" x2="50.7" y2="73.4"/>
<line class="st1" x1="22.3" y1="46.2" x2="34.3" y2="46.2"/>
<line class="st1" x1="19.8" y1="52.1" x2="31.8" y2="52.1"/>
<line class="st1" x1="23" y1="58.1" x2="34.8" y2="58.1"/>
<path class="st2" d="M39.8,55.6c-0.4,0.5-0.4,1,0.1,1.3c1,0.9,2.3,1.3,3.5,1.4v1.5c0,0.5,0.4,0.9,0.9,0.9s0.9-0.4,0.9-0.9v-1.4
	c2.3-0.4,3.9-1.8,3.9-4.2c0-2.2-1.2-3.5-3.9-4.7v-5.1c0.8,0.2,1.4,0.6,2.1,1c0.4,0.3,0.9,0.2,1.2-0.2v-0.1c0.3-0.4,0.2-0.9-0.2-1.2
	c-0.9-0.7-2.1-1.1-3.1-1.2v-1c0-0.5-0.4-0.9-0.9-0.9s-0.9,0.4-0.9,0.9v1c-1.9,0.4-3.7,1.8-3.7,3.9c0,1,0.5,2,1,2.7
	c0.7,0.7,1.7,1.2,2.6,1.5v5.9c-0.9-0.2-1.7-0.6-2.4-1.1C40.5,55.2,40,55.2,39.8,55.6z M45,51.5c1.4,0.7,2,1.4,2,2.8
	c0,1.2-0.8,2.1-2,2.5V51.5z M41.6,46.6c0-1.2,0.7-1.8,1.8-2.2v4.4C42,48.1,41.6,47.5,41.6,46.6z"/>
</svg>
