<?xml version="1.0" encoding="utf-8"?>
<!-- Generator: Adobe Illustrator 22.1.0, SVG Export Plug-In . SVG Version: 6.00 Build 0)  -->
<svg version="1.1" id="Camada_1" xmlns="http://www.w3.org/2000/svg" xmlns:xlink="http://www.w3.org/1999/xlink" x="0px" y="0px"
	 viewBox="0 0 127.7 25" style="enable-background:new 0 0 127.7 25;" xml:space="preserve">
<style type="text/css">
	.st0{fill:#112244;}
	.st1{fill:#2E61AA;}
</style>
<path class="st0" d="M122.8,9.7V0.5c0-0.2-0.2-0.5-0.5-0.5H113c-0.2,0-0.4,0.2-0.4,0.5v9.2c0,0.2-0.2,0.5-0.5,0.5h-1.7
	c-0.4,0-0.6,0.5-0.4,0.8l7.2,8.9c0.2,0.2,0.6,0.2,0.7,0l7.2-8.9c0.2-0.3,0-0.8-0.4-0.8h-1.6C122.9,10.1,122.8,9.9,122.8,9.7z"/>
<path class="st0" d="M108.9,21.4h17.5c1,0,1.8,0.8,1.8,1.8l0,0c0,1-0.8,1.8-1.8,1.8h-17.5c-1,0-1.8-0.8-1.8-1.8l0,0
	C107.1,22.2,107.9,21.4,108.9,21.4z"/>
<g>
	<path class="st0" d="M24.5,22.2c0.5,0,0.8,0.1,1.1,0.4c0.3,0.3,0.4,0.6,0.4,1s-0.1,0.8-0.4,1s-0.7,0.4-1.1,0.4
		c-0.5,0-0.8-0.1-1.1-0.4c-0.3-0.3-0.4-0.6-0.4-1c0-0.4,0.1-0.8,0.4-1S24,22.2,24.5,22.2z"/>
	<path class="st0" d="M33.4,18.3l1.3-2.5h3l-2.4,4.5l2.5,4.7h-3l-1.4-2.7L32,25h-3l2.5-4.7l-2.4-4.5h3L33.4,18.3z"/>
	<path class="st0" d="M43.3,25h-2.9V12h2.9V25z"/>
	<path class="st0" d="M51.6,22.4c0-0.2-0.1-0.4-0.4-0.6c-0.3-0.1-0.7-0.3-1.4-0.5S48.4,21,48,20.7s-0.8-0.6-1.1-0.9
		c-0.2-0.4-0.4-0.8-0.4-1.3c0-0.8,0.3-1.5,1-2.1c0.7-0.5,1.6-0.8,2.7-0.8c1.2,0,2.2,0.3,2.9,0.8c0.7,0.5,1.1,1.3,1.1,2.2h-2.9
		c0-0.7-0.4-1.1-1.2-1.1c-0.3,0-0.5,0.1-0.8,0.2s-0.3,0.4-0.3,0.6c0,0.3,0.1,0.5,0.4,0.6s0.6,0.3,1.2,0.4c0.5,0.1,1,0.2,1.4,0.4
		c1.4,0.5,2.1,1.3,2.1,2.5c0,0.8-0.4,1.5-1.1,2c-0.7,0.5-1.7,0.8-2.9,0.8c-0.8,0-1.5-0.1-2.1-0.4c-0.6-0.3-1.1-0.7-1.4-1.2
		c-0.3-0.5-0.5-1-0.5-1.5h2.7c0,0.4,0.2,0.7,0.4,0.9c0.3,0.2,0.6,0.3,1,0.3c0.4,0,0.7-0.1,0.9-0.2C51.5,22.9,51.6,22.7,51.6,22.4z"
		/>
	<path class="st0" d="M60,15.8l0.1,1.1c0.6-0.8,1.5-1.2,2.6-1.2c1.2,0,1.9,0.5,2.3,1.4c0.6-0.9,1.5-1.4,2.7-1.4
		c1.9,0,2.8,1.1,2.9,3.4v6h-2.9v-5.8c0-0.5-0.1-0.8-0.2-1c-0.2-0.2-0.4-0.3-0.9-0.3c-0.6,0-1,0.3-1.3,0.8l0,0.1V25h-2.9v-5.8
		c0-0.5-0.1-0.8-0.2-1s-0.4-0.3-0.9-0.3c-0.5,0-1,0.3-1.3,0.8V25h-2.9v-9.2H60z"/>
</g>
<polygon class="st0" points="0,0 0,25 18.1,25 18.1,6.9 11.2,0 "/>
<path class="st1" d="M18.1,6.9h-6.9V0L18.1,6.9z"/>
</svg>
