<svg xmlns="http://www.w3.org/2000/svg" viewBox="0 0 80.9 100"><defs><style>.cls-1{fill:none;}.cls-2{fill:#0080aa;}.cls-3{fill:#0090b2;}.cls-4{fill:#fff;}.cls-10,.cls-11,.cls-4,.cls-5,.cls-6,.cls-7,.cls-8,.cls-9{fill-rule:evenodd;}.cls-5{fill:#fbffa4;}.cls-6{fill:#211915;}.cls-7{fill:#e2ac18;}.cls-8{fill:#b85238;}.cls-9{fill:#d88f35;}.cls-10{fill:#c77238;}.cls-11{fill:#fbe800;}</style></defs><title>feature-2Ativo 7</title><g id="Camada_2" data-name="Camada 2"><g id="Camada_1-2" data-name="Camada 1"><rect class="cls-1" width="80.9" height="100"/><path class="cls-2" d="M40.5,4a1.1,1.1,0,0,1,.8.3c7,4.9,15.8,8,26.2,9.3a1.7,1.7,0,0,1,1.4,1.3A82.1,82.1,0,0,1,69.8,27,81.7,81.7,0,0,1,41.5,88.8a1.6,1.6,0,0,1-2.1,0A81.7,81.7,0,0,1,12,14.9a1.7,1.7,0,0,1,1.4-1.3c10.4-1.3,19.2-4.4,26.2-9.3a1.4,1.4,0,0,1,.9-.3m0-3a5,5,0,0,0-2.6.8C31.2,6.5,22.7,9.4,13,10.7a4.5,4.5,0,0,0-3.9,3.8A74.4,74.4,0,0,0,8.1,27,84.6,84.6,0,0,0,37.5,91.1a4.6,4.6,0,0,0,3,1.1,4.6,4.6,0,0,0,2.9-1.1A84.6,84.6,0,0,0,72.8,27a86.6,86.6,0,0,0-.9-12.5,4.7,4.7,0,0,0-4-3.8C58.2,9.4,49.7,6.5,43,1.8A4.4,4.4,0,0,0,40.5,1Z"/><path class="cls-2" d="M37.9,8.6c-6.7,4.7-15.2,7.7-24.9,8.9a4.6,4.6,0,0,0-3.9,3.8,74.4,74.4,0,0,0-1,12.5A84.3,84.3,0,0,0,37.5,97.9a4.4,4.4,0,0,0,5.9,0A84.3,84.3,0,0,0,72.8,33.8a86.6,86.6,0,0,0-.9-12.5,4.8,4.8,0,0,0-4-3.8C58.2,16.3,49.7,13.3,43,8.6A4.7,4.7,0,0,0,37.9,8.6Z"/><path class="cls-3" d="M67.9,25.1a4,4,0,0,0-3.5-3.3c-8.5-1.1-16-3.7-21.9-7.8a4,4,0,0,0-2.3-.8V93.6a3.9,3.9,0,0,0,2.7-1A74.5,74.5,0,0,0,68.7,36.2,80.5,80.5,0,0,0,67.9,25.1Z"/><path class="cls-4" d="M15.9,46.4a63.6,63.6,0,0,0,1.9-6.6h1.3l-.2.9a3.4,3.4,0,0,1,2.4-.8c2.4.2,1.1,3.3-.2,4.1a4.8,4.8,0,0,1-3.1.4,19.4,19.4,0,0,0-.5,2Zm4.8-3.5c.7-.6.7-1.7.2-2a1.5,1.5,0,0,0-2,.8,18.5,18.5,0,0,0-.6,2,4.5,4.5,0,0,0,2.4-.8Z"/><path class="cls-4" d="M27.7,44.6H26.4v-1c-.9.9-2.5,1.5-3.1.6s-.1-3,1-3.6,2.7-.8,4.3-.8a16.5,16.5,0,0,0-1,4.8ZM25,41.4a1.6,1.6,0,0,0-.2,2c.4.4,1.4.1,1.7-.8a18.5,18.5,0,0,0,.6-2,4.3,4.3,0,0,0-2.1.8Z"/><path class="cls-4" d="M28.2,46.5l.3-1.3a3.2,3.2,0,0,0,2.5.2,2.5,2.5,0,0,0,1.1-1.8c-.9.9-2.4,1.5-3.1.6s-.1-3,1-3.6a7.7,7.7,0,0,1,4.3-.8c-.5,1.3-.5,3.5-1.1,5a3.1,3.1,0,0,1-1.6,1.6,5.6,5.6,0,0,1-3.4.1Zm2.4-5.1a1.6,1.6,0,0,0-.2,2c.5.4,1.4.1,1.8-.8s.3-1.5.5-2a4.3,4.3,0,0,0-2.1.8Z"/><path class="cls-5" d="M43.8,46.5l.2-1.3a3.5,3.5,0,0,0,2.6.2,2.5,2.5,0,0,0,1.1-1.8c-1,.9-2.5,1.5-3.2.6s0-3,1-3.6,2.8-.8,4.4-.8c-.5,1.3-.5,3.5-1.2,5a2.8,2.8,0,0,1-1.6,1.6,5.3,5.3,0,0,1-3.3.1Zm17.5-4.7c-.4.8-.4,1.7.1,1.9s1.3-.2,1.8-1,.4-1.6-.2-1.9-1.3.2-1.7,1Zm-.4-1.4c-1.4.9-1.9,2.5-1.2,3.5s2.4,1,3.7.1,2-2.5,1.3-3.5-2.4-1-3.8-.1Zm-5.6,4a42.1,42.1,0,0,0,1.3-4.6h1.1v1a2.6,2.6,0,0,1,2.2-1l-.4,1.3c-1.1-.2-1.9.7-2.3,2.1a5,5,0,0,0-.2,1.2Zm-4.4-4.6h1.4c-.3,1-.7,2-.9,3s1.1,1.1,1.7.3a16.1,16.1,0,0,0,1.2-3.3h1.4a19.1,19.1,0,0,0-1.2,4.7H53.2v-.7c-1.3,1.2-3.5,1.5-3.3-.6a20.7,20.7,0,0,1,1-3.3Zm-7.7,3.7a2.9,2.9,0,0,0-.2.9c-1.5.2-3,.6-3.9-.6s.4-3.1,1.5-3.7,3.1-.4,3.4.5-1.1,2.4-3.6,2.1c-.3,1.2,1,1.2,2.8.8Zm-2.6-1.7A1.8,1.8,0,0,1,42,40.7a.4.4,0,0,1,.3.8c-.6.3-.7-.1-1.7.3Zm-6,1.6a3.1,3.1,0,0,0-.5,1c1.8.4,3.2.1,3.8-.5a1.1,1.1,0,0,0-.5-1.9c-.2-.2-.8-.5-.7-.8s1.1-.6,1.8-.4l.3-1H37.1a3,3,0,0,0-1.7.8,1.6,1.6,0,0,0-.4,1.4c.2.4.8.5,1.1.7s.7.4.6.7-.4.6-1,.4a3.5,3.5,0,0,1-1.1-.3Zm11.6-2c-.7.6-.7,1.7-.2,2s1.4.1,1.7-.8a14.3,14.3,0,0,0,.5-2,4.3,4.3,0,0,0-2,.8Z"/><path class="cls-4" d="M61,46.2h-.6l-.5.4-.3.4a1.3,1.3,0,0,0-.1.6.7.7,0,0,0,.1.5l.3.5.5.3h1.2l.4-.3a.5.5,0,0,0,.3-.5.7.7,0,0,0,.1-.5,1.3,1.3,0,0,0-.1-.6c0-.2-.1-.3-.3-.4s-.3-.3-.4-.4Zm0,1h.3c.1.1.1.2.1.4a.6.6,0,0,1-.1.4h-.7c0-.1-.1-.3-.1-.4s.1-.3.1-.4Z"/><path class="cls-4" d="M59.1,48.3v-2h-1v1.5c0,.2,0,.3-.1.4h-.4V46.3h-1v2c0,.1.1.2.1.3a1,1,0,0,0,.5.4h1.3a.8.8,0,0,0,.4-.4l.2-.3Z"/><polygon class="cls-4" points="63.8 46.3 62.9 46.3 62.9 49 64.8 49 64.8 48.2 63.8 48.2 63.8 46.3 63.8 46.3"/><path class="cls-6" d="M49,47.5a4.7,4.7,0,0,0-.5,1,2.8,2.8,0,0,0-.3,1.3,3.1,3.1,0,0,0,.3,1.3,4.1,4.1,0,0,0,.7,1.1,3.4,3.4,0,0,0,1.1.7,3.5,3.5,0,0,0,1.4.3,2.8,2.8,0,0,0,1.3-.3,3,3,0,0,0,1.8-1.8,3.1,3.1,0,0,0,.3-1.3,5.1,5.1,0,0,0-.2-1.3,2.7,2.7,0,0,0-.6-1,2.2,2.2,0,0,0-.9-.7,3.1,3.1,0,0,0-1.7-.5h-.1a3.7,3.7,0,0,0-1.7.5l-.9.7Z"/><path class="cls-7" d="M54,47.6a2.3,2.3,0,0,0-1.7-1,2.1,2.1,0,0,0-1.9.3,2.4,2.4,0,0,0-.8.6l-.5.9a4.1,4.1,0,0,0-.1,1.1,4.3,4.3,0,0,1,.4-.7,4.7,4.7,0,0,1,.9-.6,1.8,1.8,0,0,1,1-.2,2,2,0,0,1,1.1.2,1.5,1.5,0,0,1,.9.6l.3.4h.3l.7.4h0a3.1,3.1,0,0,0-.1-1,1.9,1.9,0,0,0-.5-.9Z"/><path class="cls-7" d="M49,50.8a2.4,2.4,0,0,0,.2.8l.6.6h.1a1.7,1.7,0,0,0,1.2.5,1.1,1.1,0,0,0,.8,0,1.9,1.9,0,0,0,.8-.3l-.6-.4H52a3.3,3.3,0,0,1-1,0,3.4,3.4,0,0,1-1.2-.6,2.4,2.4,0,0,1-.8-.9h0v.4Z"/><path class="cls-8" d="M52.2,48.5l-1-.2a1.7,1.7,0,0,0-1,.3l-.8.5-.3.7a1.1,1.1,0,0,0,.3.7,2.4,2.4,0,0,0,.8.9,2.2,2.2,0,0,0,1.1.5H52a1.3,1.3,0,0,1-.1-.6.6.6,0,0,1,0-.6,1.9,1.9,0,0,1,.2-.7c.2-.2.4-.5.6-.6l.5-.3h-.1l-.9-.6Z"/><path class="cls-9" d="M54.6,50.1v-.2a2,2,0,0,1-.6,1.1,1.1,1.1,0,0,1-.3.8l-.5.6h.4a.5.5,0,0,0,.4-.2l.5-.6h.1c0-.2.1-.3.1-.4a.8.8,0,0,0,.1-.4v-.4c0-.1,0-.2-.1-.2Z"/><path class="cls-10" d="M48.7,48.5a1.8,1.8,0,0,0-.2,1,2.2,2.2,0,0,0,.2,1.4,2.1,2.1,0,0,0,.4.6,1,1,0,0,0,.4.5,1.8,1.8,0,0,1-.6-1.3.4.4,0,0,1,0-.5,2,2,0,0,1-.2-1,3.1,3.1,0,0,1,.1-1l.3-.6a3.6,3.6,0,0,0-.4.9Z"/><path class="cls-10" d="M54.8,48.7a1.3,1.3,0,0,0-.3-.8l-.5-.6-.6-.5a1.2,1.2,0,0,1,.5.5,2.4,2.4,0,0,1,.6.9,4.3,4.3,0,0,1,.2,1.1.6.6,0,0,0-.1.4c.1,0,.1.1.1.2a2.8,2.8,0,0,1,.1.9,5.1,5.1,0,0,0,.2-1.3,1.9,1.9,0,0,0-.2-.8Z"/><path class="cls-10" d="M53.8,49.5c.1.2.1.4.2.6V51a3,3,0,0,0,.6-1.1l-.2-.2-.5-.2Z"/><path class="cls-8" d="M53.2,51.9l.3-.5a3.4,3.4,0,0,1-1.2.6l.2.2.3.2.4-.5Z"/><path class="cls-8" d="M51.4,52.9h.4l1-.2.8-.4-.5.2h-.2a2.4,2.4,0,0,1-1.5.4Z"/><path class="cls-11" d="M53.6,50.3l-.3-.7-.5.3-.5.6a1.4,1.4,0,0,0-.2.6,1.3,1.3,0,0,0,.1.6v.2l.6-.2.6-.3h0c.1-.1.1-.2.1-.4v-.6Z"/></g></g></svg>