<svg xmlns="http://www.w3.org/2000/svg" viewBox="0 0 100 100"><defs><style>.cls-1{fill:none;}.cls-2{fill:#0080aa;}.cls-3{fill:#fff;}</style></defs><title>feature-2Ativo 5</title><g id="Camada_2" data-name="Camada 2"><g id="Camada_1-2" data-name="Camada 1"><rect class="cls-1" width="100" height="100"/><path class="cls-2" d="M50,80.2c-20.6,0-49,0-49-15.5V36.1C1,19.7,27.5,19.7,50,19.7s49,0,49,16.4V64.7C99,80.2,70.6,80.2,50,80.2Z"/><path class="cls-2" d="M50,16.5c10.9,0,23.2,0,32.3,2C94.6,21.2,96,26.3,96,30V58.6c0,12.5-27.7,12.5-46,12.5S4,71.1,4,58.6V30c0-3.7,1.4-8.8,13.7-11.5,9.1-2,21.4-2,32.3-2m0-3c-22.5,0-49,0-49,16.5V58.6C1,74.1,29.4,74.1,50,74.1s49,0,49-15.5V30c0-16.5-26.5-16.5-49-16.5Z"/><path class="cls-3" d="M44.6,36.7,63.3,48.2a2.1,2.1,0,0,1,0,3.4L44.6,63.2a2,2,0,0,1-3-1.7V38.4A2,2,0,0,1,44.6,36.7Z"/></g></g></svg>