<svg xmlns="http://www.w3.org/2000/svg" viewBox="0 0 100 100"><defs><style>.cls-1{fill:none;}.cls-2{fill:#0080aa;}.cls-3{fill:#fff;}</style></defs><title>feature-2Ativo 8</title><g id="Camada_2" data-name="Camada 2"><g id="Camada_1-2" data-name="Camada 1"><rect class="cls-1" width="100" height="100"/><path class="cls-2" d="M92,67.6,47.5,80.5a5.9,5.9,0,0,1-4.5-.6L22.9,67.3a5.5,5.5,0,0,1-2.1-7L31.1,38.9A5.4,5.4,0,0,1,34.5,36L79,23.1a5.5,5.5,0,0,1,6.8,3.7l9.9,34A5.5,5.5,0,0,1,92,67.6Z"/><path class="cls-2" d="M83.3,19.8h0a3.1,3.1,0,0,1,3.1,2.3l9.9,34a2.9,2.9,0,0,1-.2,2.4,3.5,3.5,0,0,1-2,1.6L49.6,73h-.9a3.3,3.3,0,0,1-1.7-.4L26.9,60.1A3.2,3.2,0,0,1,25.7,56L35.9,34.5a3.7,3.7,0,0,1,2-1.7L82.4,19.9h.9m0-2.3-1.5.2-44.5,13a5.4,5.4,0,0,0-3.4,2.9L23.7,55a5.3,5.3,0,0,0,2,7L45.8,74.6a6,6,0,0,0,2.9.8l1.6-.2,44.5-13a5.5,5.5,0,0,0,3.7-6.8l-9.9-34a5.6,5.6,0,0,0-5.3-3.9Z"/><circle class="cls-3" cx="31.4" cy="61.7" r="4.2"/><path class="cls-2" d="M26.4,82.5c-5.1,0-11.1-2.6-16.3-7.4A28.4,28.4,0,0,1,1.9,62.7C.6,58,1.3,53.9,3.8,51.2s6.5-3.8,11.3-2.9a28.3,28.3,0,0,1,13.1,7.1c8.6,7.8,11.4,18.3,6.3,23.9h0A10.6,10.6,0,0,1,26.4,82.5ZM11.8,51A8,8,0,0,0,6,53.2c-1.8,2-2.2,5-1.2,8.6a24.7,24.7,0,0,0,7.3,11.1c7.1,6.5,16.3,8.5,20.2,4.4s1-13.2-6.1-19.7a24.6,24.6,0,0,0-11.7-6.3A12.4,12.4,0,0,0,11.8,51Z"/><path class="cls-3" d="M65.8,48.1a1.1,1.1,0,0,0-.7,1.3l2.2,7.8a1.1,1.1,0,0,0,1.4.7l3.2-.9-2.8-9.8Z"/><path class="cls-3" d="M58.6,44.1a1.8,1.8,0,0,0-1.2,2.3l1.1,3.8-7.1,2.1a1.6,1.6,0,0,0,.4,3.2,1.7,1.7,0,0,0-.3,1.4h0a1.7,1.7,0,0,0,1.9,1.2,1.4,1.4,0,0,0-.2,1.3,1.6,1.6,0,0,0,1.7,1.2,1.4,1.4,0,0,0-.2,1.4,1.7,1.7,0,0,0,2,1.1l7-2a3.2,3.2,0,0,0,2.2-3.7H66v-.3h0l-.7-2.5v-.3l-.7-2.4v-.4l-.8-2.7-2.8-4A2.1,2.1,0,0,0,58.6,44.1Z"/></g></g></svg>