<?xml version="1.0" encoding="utf-8"?>
<!-- Generator: Adobe Illustrator 22.1.0, SVG Export Plug-In . SVG Version: 6.00 Build 0)  -->
<svg version="1.1" id="Camada_1" xmlns="http://www.w3.org/2000/svg" xmlns:xlink="http://www.w3.org/1999/xlink" x="0px" y="0px"
	 viewBox="0 0 80 100" style="enable-background:new 0 0 80 100;" xml:space="preserve">
<style type="text/css">
	.st0{fill:#FFFFFF;}
</style>
<path class="st0" d="M33.4,37c-0.8,1.3-1.1,2.8-0.7,4.5s1.3,3.4,2.7,5s2.8,2.6,4.3,3c1.4,0.4,3.1,0.2,4.9-0.6
	c1.3-0.5,2.5-0.7,3.4-0.5s1.8,0.8,2.6,1.7c1,1.1,1.5,2.2,1.6,3.6c0.1,1.1-0.2,2.1-1,3c-0.8,0.8-1.7,1.2-2.8,0.9
	c-0.8-0.2-1.6-0.7-2.5-1.5c-0.5-0.4-1.3-0.4-1.8,0.1s-0.4,1.2,0,1.7c1.5,1.5,2.9,2.4,4.3,2.8c1.6,0.5,3.1,0.2,4.3-0.9l1.8,2
	c0.4,0.4,1.1,0.4,1.5,0c0.3-0.4,0.3-0.9,0-1.3l-1.9-2.2c0.9-1.4,1.2-3,0.9-4.7s-1.2-3.4-2.7-5.1c-0.9-1.1-1.9-1.9-2.8-2.4
	s-1.9-0.8-2.9-0.8c-1-0.1-2.2,0.2-3.5,0.7c-1.4,0.5-2.5,0.7-3.4,0.5s-1.8-0.8-2.7-1.8c-1-1.1-1.5-2.2-1.7-3.2
	c-0.2-0.9,0-1.8,0.5-2.5c0.7-1,1.6-1.3,2.9-0.9c0.8,0.3,1.7,0.9,2.6,1.8c0.5,0.4,1.3,0.4,1.8-0.1s0.4-1.2,0-1.7
	c-1.5-1.6-2.9-2.6-4.3-3.1c-1.5-0.6-2.9-0.4-4.1,0.5L32.5,33c-0.4-0.4-1.1-0.4-1.5,0c-0.3,0.4-0.3,0.9,0,1.3
	C31,34.3,33.4,37,33.4,37z"/>
<path class="st0" d="M70.7,85.5L59,84.8c-0.5-0.1-0.9,0.5-0.7,0.9l1.9,3.8c-2.9,0.4-6,0.4-9-0.2c-3.9-0.7-7.8-2-11.4-3.7
	C32.5,82.1,26,77,20.6,70.9c-1.3-1.5-2.6-3.1-3.8-4.8c-1.2-1.6-2.3-3.3-3.3-5.1c-1.1-1.9-2-3.8-2.8-5.7c2.3,4.8,5.6,9.5,9.9,13.7
	c8.9,8.9,19.8,13.7,28.9,13.7c5.3,0,9.9-1.6,13.3-5l6.4-6.5c4.3-5.1,5-12.7,2.7-20.8c-0.1-0.5-0.2-0.9-0.3-1.4
	c-0.9-4-2.5-7.9-4.4-11.6c-1-1.9-2-3.7-3.2-5.4c-1.1-1.7-2.4-3.4-3.7-5C55,20.6,48.5,15.1,41,11.2c-3.7-1.9-7.7-3.4-11.9-4.3
	C25.5,6.1,21.7,6,18,6.6l-2-3.9c-0.2-0.5-0.8-0.5-1.1-0.1l-6.5,9.8c-0.3,0.4,0,1,0.5,1l11.7,0.7c0.5,0,0.9-0.5,0.7-0.9l-1.9-3.7
	c3-0.4,6.1-0.4,9.2,0.2c3.9,0.7,7.8,2,11.4,3.7C47.3,16.8,53.8,22,59,28c1.3,1.5,2.6,3.1,3.8,4.8c1.2,1.6,2.3,3.3,3.3,5.1
	c0.4,0.8,0.8,1.5,1.2,2.3c-2.1-3.5-4.8-6.9-7.9-10.1C52.7,23.4,44.6,18.7,36.7,17c-7.7-1.6-14.5-0.2-19,4l-5.9,5.8
	c-4.3,4.3-5.8,10.9-4.6,18c0.1,1.7,0.4,3.4,0.8,5.1c0.9,4,2.5,7.9,4.4,11.6c1,1.9,2,3.7,3.2,5.4c1.1,1.7,2.4,3.4,3.7,5
	c5.3,6.4,11.8,11.9,19.3,15.8c3.7,1.9,7.7,3.4,11.9,4.3c3.6,0.8,7.4,0.9,11.1,0.3l2,3.9c0.2,0.5,0.8,0.5,1.1,0.1l6.5-9.8
	C71.5,86.1,71.2,85.5,70.7,85.5z M8.9,38.8l3.3-3.3c0,0.8,0.1,1.5,0.2,2.3l-3.5,3.5V38.8z M11.6,52.4l3.8-3.8
	c0.2,0.6,0.5,1.1,0.8,1.7L12.4,54C12.1,53.5,11.8,52.9,11.6,52.4z M13.4,56l3.9-3.9c0.3,0.5,0.6,1,0.9,1.5l-3.9,3.9
	C14,57,13.7,56.5,13.4,56z M15.4,59.4l3.9-3.9c0.3,0.5,0.7,1,1,1.4l-3.9,3.9C16.1,60.4,15.7,59.9,15.4,59.4z M17.7,62.6l3.9-3.9
	c0.4,0.5,0.7,0.9,1.1,1.4L18.8,64C18.4,63.5,18,63,17.7,62.6z M20.1,65.5l3.9-3.9c0.4,0.4,0.8,0.8,1.2,1.3l-3.9,3.9
	C20.9,66.4,20.5,65.9,20.1,65.5z M22.8,68.3l3.9-3.9c0.4,0.4,0.8,0.8,1.3,1.2l-3.9,3.9C23.6,69.1,23.2,68.7,22.8,68.3z M25.7,70.8
	l3.9-3.9c0.4,0.4,0.9,0.7,1.4,1.1l-4,3.9C26.6,71.6,26.1,71.2,25.7,70.8z M28.7,73.2l3.9-3.9c0.5,0.3,1,0.7,1.4,1l-3.9,3.9
	C29.7,73.9,29.2,73.5,28.7,73.2z M32,75.3l3.9-3.9l1.5,0.9l-3.9,3.9C33.1,75.9,32.5,75.6,32,75.3z M35.5,77.2l3.9-3.9
	c0.6,0.3,1.1,0.5,1.7,0.8L37.2,78C36.7,77.7,36.1,77.5,35.5,77.2z M39.4,78.8l3.8-3.8l1.8,0.6l-3.8,3.8L39.4,78.8z M43.6,80l3.7-3.7
	c0.7,0.2,1.3,0.3,2,0.5l-3.6,3.6C45,80.3,44.3,80.2,43.6,80z M50.8,80.6c-0.8,0.1-1.6,0.1-2.5,0l3.5-3.5c0.8,0.1,1.5,0.1,2.3,0.2
	L50.8,80.6z M54.3,80.1l2.9-2.9c1.3-0.1,2.6-0.4,3.8-0.7C59.2,78.3,56.9,79.5,54.3,80.1z M18.7,22.9c2.9-2.9,7-4.4,11.8-4.4
	c1.8,0,3.7,0.2,5.7,0.6c7.5,1.6,15.2,6.1,21.6,12.5C71,44.8,74.9,62.4,66.5,70.8c-8.2,8.5-25.8,4.5-39-8.7S10.4,31.3,18.7,22.9z
	 M14.6,46.4l-3.8,3.8l-0.6-1.8l3.8-3.8L14.6,46.4z M9.6,46.1c-0.2-0.7-0.3-1.4-0.4-2.1l3.6-3.6c0.1,0.7,0.3,1.3,0.5,2
	C13.3,42.4,9.6,46.1,9.6,46.1z M12.4,32.4l-2.9,2.9c0.6-2.6,1.8-4.9,3.6-6.8C12.7,29.7,12.5,31,12.4,32.4z"/>
</svg>
