<?xml version="1.0" encoding="utf-8"?>
<!-- Generator: Adobe Illustrator 22.1.0, SVG Export Plug-In . SVG Version: 6.00 Build 0)  -->
<svg version="1.1" id="Camada_1" xmlns="http://www.w3.org/2000/svg" xmlns:xlink="http://www.w3.org/1999/xlink" x="0px" y="0px"
	 viewBox="0 0 77.3 100" style="enable-background:new 0 0 77.3 100;" xml:space="preserve">
<style type="text/css">
	.st0{fill:none;stroke:#FFFFFF;stroke-width:3;stroke-linecap:round;stroke-linejoin:round;stroke-miterlimit:10;}
	.st1{fill:none;stroke:#FFFFFF;stroke-width:0.5;stroke-linecap:round;stroke-linejoin:round;}
	.st2{fill:none;stroke:#FFFFFF;stroke-width:1.5;stroke-linecap:round;stroke-linejoin:round;stroke-dasharray:5;}
</style>
<polyline class="st0" points="3.2,71 26.8,57.2 50.5,76.3 74.2,60.9 "/>
<line class="st1" x1="26.9" y1="56.2" x2="26.9" y2="57.7"/>
<line class="st2" x1="26.9" y1="61" x2="26.9" y2="97.7"/>
<line class="st1" x1="3.2" y1="70" x2="3.2" y2="71.5"/>
<line class="st2" x1="2.5" y1="61" x2="2.5" y2="97.8"/>
<line class="st1" x1="50.5" y1="75" x2="50.5" y2="76.5"/>
<line class="st2" x1="50.5" y1="61" x2="50.5" y2="97.7"/>
<line class="st1" x1="74.2" y1="60.9" x2="74.2" y2="62.4"/>
<line class="st2" x1="75" y1="60.9" x2="75" y2="98"/>
<path class="st0" d="M24.1,22.5H6c-1.5,0-2.8,1.3-2.8,2.8v45.6l23.7-13.7V25.3C26.9,23.8,25.6,22.5,24.1,22.5z"/>
<path class="st0" d="M71.4,12.9H53.3c-1.5,0-2.8,1.3-2.8,2.8v60.6l23.7-15.4V15.7C74.2,14.1,73,12.9,71.4,12.9z"/>
<path class="st0" d="M47.7,1.6h-18c-1.5,0-2.8,1.3-2.8,2.8v52.8l23.6,19.1V4.4C50.5,2.9,49.3,1.6,47.7,1.6z"/>
</svg>
