<?xml version="1.0" encoding="utf-8"?>
<!-- Generator: Adobe Illustrator 22.1.0, SVG Export Plug-In . SVG Version: 6.00 Build 0)  -->
<svg version="1.1"
	 id="svg2" inkscape:version="0.48.3.1 r9886" sodipodi:docname="word.svg" xmlns:cc="http://creativecommons.org/ns#" xmlns:dc="http://purl.org/dc/elements/1.1/" xmlns:inkscape="http://www.inkscape.org/namespaces/inkscape" xmlns:rdf="http://www.w3.org/1999/02/22-rdf-syntax-ns#" xmlns:sodipodi="http://sodipodi.sourceforge.net/DTD/sodipodi-0.dtd" xmlns:svg="http://www.w3.org/2000/svg"
	 xmlns="http://www.w3.org/2000/svg" xmlns:xlink="http://www.w3.org/1999/xlink" x="0px" y="0px" viewBox="0 0 110 107.5"
	 style="enable-background:new 0 0 110 107.5;" xml:space="preserve">
<style type="text/css">
	.st0{fill:#207245;}
	.st1{fill:#FFFFFF;}
</style>
<sodipodi:namedview  bordercolor="#666666" borderopacity="1" fit-margin-bottom="0" fit-margin-left="0" fit-margin-right="0" fit-margin-top="0" gridtolerance="10" guidetolerance="10" id="namedview122" inkscape:current-layer="svg2" inkscape:cx="344.89442" inkscape:cy="53.75" inkscape:pageopacity="0" inkscape:pageshadow="2" inkscape:window-height="960" inkscape:window-maximized="1" inkscape:window-width="1280" inkscape:window-x="0" inkscape:window-y="0" inkscape:zoom="1.0905983" objecttolerance="10" pagecolor="#ffffff" showgrid="false">
	</sodipodi:namedview>
<g id="path10" inkscape:connector-curvature="0">
	<path class="st0" d="M57.1,105.9c-0.1,0-0.2,0-0.3,0c-11.8-2.2-23.9-4.2-35.5-6.2c-6.1-1.1-12.2-2.1-18.3-3.2
		c-0.7-0.1-1.2-0.7-1.2-1.5V12.6c0-0.7,0.5-1.4,1.2-1.5C8.9,10,14.8,9,20.7,8C32.9,5.9,45,3.8,57.1,1.7c0.1,0,0.2,0,0.3,0h7
		c0.8,0,1.5,0.7,1.5,1.5V11l14.2,0c6.5,0,13.1,0,19.6,0c0.4,0,0.6,0,0.9,0c1.9,0,4,0.1,5.8,1.4c0.1,0.1,0.3,0.2,0.4,0.4
		c1.3,1.9,1.3,4,1.4,5.9c0,0.3,0,0.6,0,0.8c-0.1,17.9,0,36.1,0,53.7l0,7.7c0,1,0,1.9,0,2.9c0,2.5,0.1,5.1-0.5,7.7
		c-0.7,3.5-4.6,3.7-6.6,3.8l-0.1,0c-3,0-6,0-9,0c-3.5,0-17.7,0-21.3,0c-1.6,0-3.2,0-4.9,0v9.1c0,0.8-0.7,1.5-1.5,1.5H57.1z"/>
	<path class="st1" d="M64.4,3.1c0,3.1,0,6.3,0,9.4c5.2,0,10.5,0,15.7,0c6.5,0,13.1,0,19.6,0c2,0.1,4.2-0.1,5.9,1.1
		c1.2,1.7,1.1,4,1.2,6c-0.1,20.4,0,40.9,0,61.3c-0.1,3.4,0.3,6.9-0.4,10.3c-0.5,2.4-3.4,2.5-5.4,2.6c-3,0-5.9,0-8.9,0
		c-7.1,0-14.2,0-21.3,0c-2.1,0-4.3,0-6.4,0c0,3.5,0,7.1,0,10.6h-7.3c-17.9-3.3-35.9-6.3-53.9-9.4c0-27.5,0-54.9,0-82.4
		c18.1-3.1,36.1-6.2,54.2-9.4H64.4 M64.4,0.1h-7c-0.2,0-0.3,0-0.5,0C44.8,2.3,32.4,4.5,20.5,6.5c-5.9,1-11.9,2.1-17.8,3.1
		c-1.4,0.2-2.5,1.5-2.5,3V95c0,1.5,1,2.7,2.5,3C8.8,99,15,100,21.1,101.1c11.6,2,23.6,4.1,35.4,6.2c0.2,0,0.4,0,0.5,0h7.3
		c1.7,0,3-1.3,3-3v-7.6c1.1,0,2.3,0,3.4,0c3.5,0,7.1,0,10.6,0c3.5,0,7.1,0,10.6,0c3,0,5.9,0,8.9,0c0,0,0.1,0,0.1,0l0.1,0
		c2.1-0.1,7.1-0.3,8-5c0.6-2.7,0.5-5.4,0.5-8c0-1,0-1.9,0-2.8c0,0,0,0,0-0.1l0-7.7c0-17.6,0-35.7,0-53.6c0,0,0-0.1,0-0.1
		c0-0.3,0-0.5,0-0.8c0-2-0.1-4.5-1.7-6.7c-0.2-0.3-0.5-0.6-0.8-0.8c-2.2-1.5-4.7-1.6-6.7-1.6c-0.3,0-0.6,0-0.8,0c0,0-0.1,0-0.1,0
		c0,0,0,0,0,0c-7.1,0-14.2,0-19.6,0l-7.9,0l-4.9,0V3.1C67.4,1.5,66.1,0.1,64.4,0.1L64.4,0.1z"/>
</g>
<path id="path48" inkscape:connector-curvature="0" class="st1" d="M64.4,16.1c12.9,0,25.9,0,38.8,0c0,24.7,0,49.4,0,74.2
	c-12.9,0-25.9,0-38.8,0c0-2.4,0-4.7,0-7.1c3.1,0,6.3,0,9.4,0c0-2.7,0-5.5,0-8.2c-3.1,0-6.3,0-9.4,0c0-1.6,0-3.1,0-4.7
	c3.1,0,6.3,0,9.4,0c0-2.7,0-5.5,0-8.2c-3.1,0-6.3,0-9.4,0c0-1.6,0-3.1,0-4.7c3.1,0,6.3,0,9.4,0c0-2.7,0-5.5,0-8.2
	c-3.1,0-6.3,0-9.4,0c0-1.6,0-3.1,0-4.7c3.1,0,6.3,0,9.4,0c0-2.7,0-5.5,0-8.2c-3.1,0-6.3,0-9.4,0c0-1.6,0-3.1,0-4.7
	c3.1,0,6.3,0,9.4,0c0-2.7,0-5.5,0-8.2c-3.1,0-6.3,0-9.4,0C64.4,20.8,64.4,18.4,64.4,16.1z"/>
<path id="path58" inkscape:connector-curvature="0" class="st0" d="M78.5,23.1c5.5,0,11,0,16.5,0c0,2.7,0,5.5,0,8.2
	c-5.5,0-11,0-16.5,0C78.5,28.6,78.5,25.9,78.5,23.1z"/>
<path id="path72" inkscape:connector-curvature="0" class="st1" d="M38.1,34.2c2.7-0.2,5.3-0.4,8-0.5c-3.1,6.4-6.3,12.9-9.5,19.3
	c3.2,6.6,6.5,13.1,9.8,19.7c-2.8-0.2-5.7-0.3-8.5-0.5c-2-4.9-4.4-9.7-5.9-14.8c-1.6,4.8-3.9,9.3-5.7,14c-2.6,0-5.2-0.1-7.7-0.2
	c3-5.9,5.9-11.9,9.1-17.8c-2.6-6.1-5.6-12-8.3-18c2.6-0.2,5.2-0.3,7.8-0.4c1.8,4.6,3.7,9.1,5.1,13.9C33.8,43.7,36.1,39,38.1,34.2z"
	/>
<path id="path90" inkscape:connector-curvature="0" class="st0" d="M78.5,36.1c5.5,0,11,0,16.5,0c0,2.7,0,5.5,0,8.2
	c-5.5,0-11,0-16.5,0C78.5,41.6,78.5,38.8,78.5,36.1z"/>
<path id="path108" inkscape:connector-curvature="0" class="st0" d="M78.5,49c5.5,0,11,0,16.5,0c0,2.7,0,5.5,0,8.2
	c-5.5,0-11,0-16.5,0C78.5,54.5,78.5,51.8,78.5,49z"/>
<path id="path114" inkscape:connector-curvature="0" class="st0" d="M78.5,62c5.5,0,11,0,16.5,0c0,2.7,0,5.5,0,8.2
	c-5.5,0-11,0-16.5,0C78.5,67.5,78.5,64.7,78.5,62z"/>
<path id="path120" inkscape:connector-curvature="0" class="st0" d="M78.5,74.9c5.5,0,11,0,16.5,0c0,2.7,0,5.5,0,8.2
	c-5.5,0-11,0-16.5,0C78.5,80.4,78.5,77.7,78.5,74.9z"/>
</svg>
