<?xml version="1.0" encoding="utf-8"?>
<!-- Generator: Adobe Illustrator 22.1.0, SVG Export Plug-In . SVG Version: 6.00 Build 0)  -->
<svg version="1.1" id="Camada_1" xmlns="http://www.w3.org/2000/svg" xmlns:xlink="http://www.w3.org/1999/xlink" x="0px" y="0px"
	 viewBox="0 0 100 100" style="enable-background:new 0 0 100 100;" xml:space="preserve">
<style type="text/css">
	.st0{fill:none;stroke:#FFFFFF;stroke-width:3;stroke-linecap:round;stroke-linejoin:round;stroke-miterlimit:10;}
	.st1{fill:#FFFFFF;stroke:#FFFFFF;stroke-width:3;stroke-linejoin:round;stroke-miterlimit:10;}
	.st2{fill:#FFFFFF;}
	.st3{fill:none;stroke:#FFFFFF;stroke-width:3;stroke-linecap:round;stroke-linejoin:round;}
	.st4{fill:none;stroke:#FFFFFF;stroke-width:3;stroke-linecap:round;stroke-linejoin:round;stroke-dasharray:0,6.9596;}
	.st5{fill:none;stroke:#FFFFFF;stroke-width:3;stroke-linecap:round;stroke-linejoin:round;stroke-dasharray:0,7.4969;}
</style>
<g>
	<path class="st0" d="M6.7,7v76.9c0,5.1,4.1,9.2,9.2,9.2h77.4"/>
	
		<rect x="51.7" y="19.2" transform="matrix(-1 -1.224647e-16 1.224647e-16 -1 127.5052 112.2286)" class="st0" width="24.1" height="73.9"/>
	
		<rect x="27.6" y="47.4" transform="matrix(-1 -1.224647e-16 1.224647e-16 -1 79.3002 140.4436)" class="st1" width="24.1" height="45.7"/>
	<line class="st0" x1="75.8" y1="19.2" x2="51.8" y2="43.2"/>
	<line class="st0" x1="75.8" y1="31.2" x2="51.8" y2="55.2"/>
	<line class="st0" x1="75.8" y1="43.2" x2="51.8" y2="67.2"/>
	<line class="st0" x1="75.8" y1="55.2" x2="51.8" y2="79.2"/>
	<line class="st0" x1="75.8" y1="67.2" x2="51.8" y2="91.3"/>
	<line class="st0" x1="75.8" y1="79.2" x2="62" y2="93"/>
	<line class="st0" x1="63.8" y1="19.2" x2="51.8" y2="31.2"/>
	<circle class="st2" cx="6.7" cy="7" r="2.8"/>
	<circle class="st2" cx="93.3" cy="93" r="2.8"/>
</g>
<g>
	<g>
		<line class="st3" x1="6.7" y1="47.4" x2="6.7" y2="47.4"/>
		<line class="st4" x1="13.7" y1="47.4" x2="24.1" y2="47.4"/>
		<line class="st3" x1="27.6" y1="47.4" x2="27.6" y2="47.4"/>
	</g>
</g>
<g>
	<g>
		<line class="st3" x1="6.7" y1="19.2" x2="6.7" y2="19.2"/>
		<line class="st5" x1="14.2" y1="19.2" x2="48" y2="19.2"/>
		<line class="st3" x1="51.7" y1="19.2" x2="51.7" y2="19.2"/>
	</g>
</g>
</svg>
