<?xml version="1.0" encoding="utf-8"?>
<!-- Generator: Adobe Illustrator 22.1.0, SVG Export Plug-In . SVG Version: 6.00 Build 0)  -->
<svg version="1.1" id="Camada_1" xmlns="http://www.w3.org/2000/svg" xmlns:xlink="http://www.w3.org/1999/xlink" x="0px" y="0px"
	 viewBox="0 0 84.5 100" style="enable-background:new 0 0 84.5 100;" xml:space="preserve">
<style type="text/css">
	.st0{fill:none;stroke:#FFFFFF;stroke-width:2;stroke-linecap:round;stroke-linejoin:round;stroke-miterlimit:10;}
</style>
<line class="st0" x1="26" y1="14.7" x2="58.9" y2="14.7"/>
<path class="st0" d="M63.3,14.7h9.4c5.2,0,9.4,4.3,9.4,9.4v61.1c0,5.2-4.3,9.4-9.4,9.4H11.7c-5.2,0-9.4-4.3-9.4-9.4v-61
	c0-5.2,4.3-9.4,9.4-9.4h9.4"/>
<path class="st0" d="M36.3,42.7h-23c-1.6,0-2.9-1.3-2.9-2.9V27.3c0-1.6,1.3-2.9,2.9-2.9h12.3c1.6,0,2.9,1.3,2.9,2.9V38"/>
<path class="st0" d="M51.7,28.8v10.9c0,1.6-1.3,2.9-2.9,2.9H36.3c-1.6,0-2.9-1.3-2.9-2.9V27.3c0-1.6,1.3-2.9,2.9-2.9h28.8"/>
<path class="st0" d="M69.4,42.7H58.9c-1.6,0-2.9-1.3-2.9-2.9V27.3c0-1.6,1.3-2.9,2.9-2.9h12.4c1.6,0,2.9,1.3,2.9,2.9v28.5"/>
<path class="st0" d="M10.4,77.5V49.7c0-1.6,1.3-2.9,2.9-2.9h12.4c1.6,0,2.9,1.3,2.9,2.9v12.4c0,1.6-1.3,2.9-2.9,2.9H15"/>
<path class="st0" d="M33.3,59.3v-9.5c0-1.6,1.3-2.9,2.9-2.9h12.4c1.6,0,2.9,1.3,2.9,2.9v12.4c0,1.6-1.3,2.9-2.9,2.9H19.4"/>
<path class="st0" d="M42.5,46.9h28.8c1.6,0,2.9,1.3,2.9,2.9v12.4c0,1.6-1.3,2.9-2.9,2.9H58.9c-1.6,0-2.9-1.3-2.9-2.9V51.9"/>
<path class="st0" d="M28.5,74.1v10.4c0,1.6-1.3,2.9-2.9,2.9H13.3c-1.6,0-2.9-1.3-2.9-2.9V72.1c0-1.6,1.3-2.9,2.9-2.9h29"/>
<path class="st0" d="M65.2,87.4H36.3c-1.6,0-2.9-1.3-2.9-2.9V72.1c0-1.6,1.3-2.9,2.9-2.9h12.4c1.6,0,2.9,1.3,2.9,2.9v10.3"/>
<path class="st0" d="M70.8,87.4H59.3c-1.9,0-3.3-1.5-3.3-3.3V72.6c0-1.9,1.5-3.3,3.3-3.3h11.5c1.9,0,3.3,1.5,3.3,3.3v11.5
	C74.2,85.9,72.8,87.4,70.8,87.4z"/>
<path class="st0" d="M21.1,14.7V7.5c0-1.2,1-2.2,2.2-2.2c1.2,0,2.2,1,2.2,2.2v7.2"/>
<path class="st0" d="M58.9,14.7V7.5c0-1.2,1-2.2,2.2-2.2s2.2,1,2.2,2.2v7.2"/>
</svg>
