<?xml version="1.0" encoding="utf-8"?>
<!-- Generator: Adobe Illustrator 22.1.0, SVG Export Plug-In . SVG Version: 6.00 Build 0)  -->
<svg version="1.1" id="Layer_1" xmlns="http://www.w3.org/2000/svg" xmlns:xlink="http://www.w3.org/1999/xlink" x="0px" y="0px"
	 viewBox="0 0 94.5 100" style="enable-background:new 0 0 94.5 100;" xml:space="preserve">
<style type="text/css">
	.st0{fill:none;stroke:#FFFFFF;stroke-width:3;stroke-linecap:round;stroke-linejoin:round;stroke-miterlimit:10;}
	.st1{fill:none;stroke:#FFFFFF;stroke-width:3;stroke-linecap:round;stroke-miterlimit:10;}
</style>
<g>
	<path class="st0" d="M20.6,81.5h64.6c3.6,0,6.5,2.9,6.5,6.5v6.5h-89V88c0-3.6,2.9-6.5,6.5-6.5"/>
	<path class="st0" d="M79.4,8.8v85.7"/>
	<path class="st0" d="M15,88V9.5c0-2.2,1.8-4,4-4h63.8"/>
	<line class="st1" x1="24.5" y1="16.7" x2="49.3" y2="16.7"/>
	<line class="st1" x1="58.7" y1="16.7" x2="69.7" y2="16.7"/>
	<line class="st1" x1="24.5" y1="25.7" x2="42.5" y2="25.7"/>
	<line class="st1" x1="62.2" y1="25.7" x2="69.7" y2="25.7"/>
	<line class="st1" x1="24.5" y1="34.7" x2="47.3" y2="34.7"/>
	<line class="st1" x1="54.5" y1="34.7" x2="69.7" y2="34.7"/>
	<line class="st1" x1="24.5" y1="43" x2="46" y2="43"/>
	<line class="st1" x1="56.3" y1="43" x2="69.7" y2="43"/>
	<line class="st1" x1="24.5" y1="52" x2="54.5" y2="52"/>
	<line class="st1" x1="64.2" y1="52" x2="69.7" y2="52"/>
	<path class="st0" d="M54.8,62.3L46,71.1l-6.4-6.4"/>
	<path class="st0" d="M79.4,8.9c0-1.9,1.5-3.4,3.4-3.4l0,0c1.9,0,3.4,1.5,3.4,3.4v10.2"/>
</g>
</svg>
