<?xml version="1.0" encoding="utf-8"?>
<!-- Generator: Adobe Illustrator 22.1.0, SVG Export Plug-In . SVG Version: 6.00 Build 0)  -->
<svg version="1.1" id="Camada_1" xmlns="http://www.w3.org/2000/svg" xmlns:xlink="http://www.w3.org/1999/xlink" x="0px" y="0px"
	 viewBox="0 0 83.3 100" style="enable-background:new 0 0 83.3 100;" xml:space="preserve">
<style type="text/css">
	.st0{fill:none;stroke:#FFFFFF;stroke-width:2;stroke-miterlimit:10;}
	.st1{fill:#FFFFFF;}
	.st2{fill:none;stroke:#FFFFFF;stroke-width:3;stroke-linecap:round;stroke-miterlimit:10;}
</style>
<g>
	<g>
		<g>
			<path class="st0" d="M56.8,24h21.4c1.3,0,2.2,1.1,2.2,2.2v68.3c0.1,1.3-0.9,2.3-2.2,2.3h-48C17.6,96.9,7.4,86.7,7.4,74V39
				L56.8,24z"/>
		</g>
	</g>
	<g>
		<g>
			<path class="st1" d="M28.5,88.4c-0.4,5.6,2.1,7.8,2.1,7.8c-10.7,0-23.1-6.8-23.1-22C10.9,89.7,21,88.9,26.3,86.8
				C27.4,86.4,28.6,87.1,28.5,88.4z"/>
		</g>
	</g>
	<g>
		<g>
			<path class="st1" d="M52,87.9c1.7-0.2,2.9-1.3,3.9-2.8c1-1.3,1.6-2.9,2-4.2c1.1-3,0.4-7.9,1.8-9.3c1.4-1.6,1.3,0,1.3,0
				c0.1,3.3,0.4,6.8,1.3,10c0.4,1.7,1,3.2,1.7,4.7c0.4,0.6,1.1,1.3,1.7,1.6c0.6,0.2,1.2-0.4,1.6-1.3c1.1-3.1,1-6.8,0.2-10
				c-0.4-1.7-0.8-3.2-1.6-4.8c-0.6-1.3-1.7-2.9-3-3.9c-1.3-1-2.9-1.3-4.4-1.2c-1.6,0.1-3,0.6-3.5,1.9c-0.8,1.2-0.8,2.9-0.4,4.2
				c0.2,1.6,1.1,3,1.9,4.4c3.4,5.6,10.2,8.8,16.9,9.2c0,0,0.1,0,0.1,0.1c0,0,0,0.1-0.1,0.1C66.4,87,58.9,84.1,55,78.1
				c-1.1-1.6-1.8-3.1-2.2-4.8c-0.4-1.8-0.4-3.9,0.6-5.6c0.4-1,1.3-1.6,2.2-1.9c1-0.4,1.8-0.6,2.9-0.6c1.8-0.1,3.9,0.4,5.3,1.7
				c3,2.4,4,6,4.5,9.3c0.2,1.7,0.2,3.4,0.2,5.2c-0.1,1.7-0.2,3.4-1,5.2c-0.1,0.4-0.4,0.8-0.6,1.2c-0.1,0.1-0.4,0.4-0.6,0.4
				c-0.2,0.1-0.4,0-0.8,0c-1-0.2-1.7-1.1-2-1.7c-1.1-1.3-1.7-3.1-2.2-4.8c-1.1-3.3-1.7-6.8-1.7-10.2l0,0c0-0.4,0.2-0.8,0.8-0.8
				c0.4,0,0.8,0.2,0.8,0.8l0,0c0,1.7-0.2,3.3-0.6,5c-0.4,1.7-1,3.2-1.6,4.8c-0.6,1.6-1.3,3.1-2.7,4.4c-1.1,1.3-2.7,2.4-4.2,2.4
				C52,87.9,52,87.9,52,87.9L52,87.9z"/>
		</g>
	</g>
	<g>
		<g>
			<g>
				<path class="st0" d="M29.8,4.5V11c0,0.4-0.4,1.1-1,1.1l0,0c-0.4,0.1-1.1-0.2-1.3-0.8l-2-6.4c-0.2-0.4-0.8-0.9-1.3-0.8
					c-0.3,0.1-0.7,0.2-1,0.2c-0.3,0.1-0.7,0.2-1,0.3c-0.4,0.2-0.9,0.9-0.8,1.3l2,6.4c0.2,0.4-0.1,1.1-0.7,1.3l0,0
					c-0.4,0.2-1.2,0.1-1.4-0.3l-3.7-5.5c-0.3-0.4-1.1-0.7-1.6-0.3C7.2,13.8,3.2,27,6.7,37.7l15.2-2.5l23.6-6.9l10.2-5.5
					C52.3,11.8,41.8,3.2,30.9,3C30.5,3.3,29.8,3.8,29.8,4.5z"/>
			</g>
		</g>
	</g>
	<g>
		<g>
			<g>
				<path class="st1" d="M32.7,35.1C18.9,39.4,6,40.9,5.6,41c-1.3,0.2-2.5-0.8-2.7-2.2c-0.2-1.3,0.8-2.5,2.2-2.7
					c0.1,0,12.8-1.6,26.4-5.8c13.5-4,25.7-10.1,25.8-10.1c1.2-0.7,2.7-0.1,3.2,1.1c0.7,1.2,0.1,2.7-1.1,3.2
					C58.7,24.9,46.5,30.8,32.7,35.1z"/>
			</g>
		</g>
	</g>
	<g>
		<g>
			<g>
				<path class="st1" d="M35.1,8c1.4-1.8,10.4,3,13.1,7.5c2.7,4.7-2,6.3-3.7,5.3c-1.7-1-1.3-4.8-3.5-7.8C38.5,9.9,33.6,9.8,35.1,8z"
					/>
			</g>
		</g>
	</g>
	<line class="st2" x1="17.2" y1="43.6" x2="70.8" y2="43.6"/>
	<line class="st2" x1="17.2" y1="51.2" x2="70.8" y2="51.2"/>
	<line class="st2" x1="17.2" y1="63" x2="43.9" y2="63"/>
	<line class="st2" x1="21.8" y1="36.2" x2="70.8" y2="36.2"/>
	<line class="st2" x1="17.2" y1="68.8" x2="33.7" y2="68.8"/>
</g>
</svg>
