<?xml version="1.0" encoding="utf-8"?>
<!-- Generator: Adobe Illustrator 22.1.0, SVG Export Plug-In . SVG Version: 6.00 Build 0)  -->
<svg version="1.1" id="Camada_1" xmlns="http://www.w3.org/2000/svg" xmlns:xlink="http://www.w3.org/1999/xlink" x="0px" y="0px"
	 viewBox="0 0 100 100" style="enable-background:new 0 0 100 100;" xml:space="preserve">
<style type="text/css">
	.st0{fill:none;stroke:#FFFFFF;stroke-width:3;stroke-linecap:round;stroke-linejoin:round;stroke-miterlimit:10;}
	.st1{fill:#FFFFFF;stroke:#FFFFFF;stroke-width:3;stroke-linejoin:round;stroke-miterlimit:10;}
	.st2{fill:#FFFFFF;}
	.st3{fill:none;stroke:#FFFFFF;stroke-width:3;stroke-linecap:round;stroke-linejoin:round;}
	.st4{fill:none;stroke:#FFFFFF;stroke-width:3;stroke-linecap:round;stroke-linejoin:round;stroke-dasharray:0,6.9596;}
	.st5{fill:none;stroke:#FFFFFF;stroke-width:3;stroke-linecap:round;stroke-linejoin:round;stroke-dasharray:0,7.4969;}
</style>
<g>
	<path class="st0" d="M7.4,12.1v67.1c0,4.8,3.9,8.7,8.7,8.7h76.5"/>
	<rect x="42.9" y="18.3" class="st0" width="22.7" height="69.6"/>
	<rect x="20.2" y="44.9" class="st1" width="22.7" height="43"/>
	<line class="st0" x1="65.6" y1="18.4" x2="43" y2="41"/>
	<line class="st0" x1="65.6" y1="29.7" x2="43" y2="52.3"/>
	<line class="st0" x1="65.6" y1="41" x2="43" y2="63.6"/>
	<line class="st0" x1="65.6" y1="52.3" x2="43" y2="74.9"/>
	<line class="st0" x1="65.6" y1="63.6" x2="43" y2="86.3"/>
	<line class="st0" x1="65.6" y1="74.9" x2="52.6" y2="87.9"/>
	<line class="st0" x1="54.3" y1="18.4" x2="43" y2="29.7"/>
	<rect x="65.6" y="31.6" class="st0" width="22.7" height="56.3"/>
	<circle class="st2" cx="7.4" cy="12.1" r="2.6"/>
	<circle class="st2" cx="92.6" cy="87.9" r="2.6"/>
</g>
<g>
	<g>
		<line class="st3" x1="7.4" y1="44.9" x2="7.4" y2="44.9"/>
		<line class="st4" x1="14" y1="44.9" x2="18.5" y2="44.9"/>
		<line class="st3" x1="20.2" y1="44.9" x2="20.2" y2="44.9"/>
	</g>
</g>
<g>
	<g>
		<line class="st3" x1="7.4" y1="18.4" x2="7.4" y2="18.4"/>
		<line class="st5" x1="14.5" y1="18.4" x2="41.1" y2="18.4"/>
		<line class="st3" x1="42.9" y1="18.4" x2="42.9" y2="18.4"/>
	</g>
</g>
<g>
	<g>
		<line class="st3" x1="7.4" y1="31.6" x2="7.4" y2="31.6"/>
		<line class="st5" x1="14.5" y1="31.6" x2="41.1" y2="31.6"/>
		<line class="st3" x1="42.9" y1="31.6" x2="42.9" y2="31.6"/>
	</g>
</g>
</svg>
