<svg xmlns="http://www.w3.org/2000/svg" xmlns:xlink="http://www.w3.org/1999/xlink" viewBox="0 0 94.74 95.18"><defs><style>.cls-1{fill:#fff;}.cls-2{fill:url(#Gradiente_sem_nome_3);}.cls-3{fill:url(#Gradiente_sem_nome_2);}</style><linearGradient id="Gradiente_sem_nome_3" x1="333.97" y1="1600.4" x2="336.18" y2="1600.4" gradientTransform="matrix(0, -41.64, -41.64, 0, 66690.74, 14000.76)" gradientUnits="userSpaceOnUse"><stop offset="0" stop-color="#20b038"/><stop offset="1" stop-color="#60d66a"/></linearGradient><linearGradient id="Gradiente_sem_nome_2" x1="334.26" y1="1600.13" x2="336.47" y2="1600.13" gradientTransform="matrix(0, -43.13, -43.13, 0, 69068.05, 14513.4)" gradientUnits="userSpaceOnUse"><stop offset="0" stop-color="#f9f9f9"/><stop offset="1" stop-color="#fff"/></linearGradient></defs><title>Ativo 3</title><g id="Camada_2" data-name="Camada 2"><g id="Camada_1-2" data-name="Camada 1"><path class="cls-1" d="M26.17,80.07l1.43.85a39.24,39.24,0,0,0,19.95,5.47h0A39.19,39.19,0,1,0,14.35,68l.94,1.48L11.33,84ZM0,95.17,6.69,70.73a47.18,47.18,0,0,1,74.25-56.9A47.18,47.18,0,0,1,47.57,94.35h0A47.08,47.08,0,0,1,25,88.61Z"/><path class="cls-2" d="M2,47.18A45.55,45.55,0,0,0,8.1,69.94L1.64,93.53,25.78,87.2a45.55,45.55,0,0,0,21.76,5.54h0A45.54,45.54,0,1,0,2,47.18M47.56,92.74h0"/><path class="cls-3" d="M.4,47.17A47,47,0,0,0,6.69,70.74L0,95.18l25-6.56a47.05,47.05,0,0,0,22.54,5.74h0A47.18,47.18,0,1,0,.4,47.16M15.29,69.51,14.35,68A39.22,39.22,0,1,1,47.57,86.39h0A39.13,39.13,0,0,1,27.6,80.93l-1.43-.85L11.32,84ZM47.57,94.36h0"/><path class="cls-1" d="M35.78,27.45c-.88-2-1.81-2-2.65-2s-1.48,0-2.26,0a4.31,4.31,0,0,0-3.14,1.47,13.21,13.21,0,0,0-4.13,9.83c0,5.8,4.22,11.4,4.81,12.19S36.57,62,48.55,66.67c10,3.93,12,3.15,14.14,3s7-2.85,8-5.6,1-5.11.68-5.61-1.08-.78-2.25-1.37S62.1,53.6,61,53.2s-1.87-.59-2.65.59-3,3.84-3.73,4.62-1.38.89-2.56.3a32.41,32.41,0,0,1-9.48-5.85,35.51,35.51,0,0,1-6.55-8.16c-.69-1.18-.08-1.82.51-2.41s1.18-1.37,1.77-2.06a7.93,7.93,0,0,0,1.18-2,2.16,2.16,0,0,0-.1-2.06c-.29-.59-2.58-6.42-3.63-8.75"/></g></g></svg>